# xmcd
# Track frame offsets:
# 182
# 11282
# 24120
# 38002
# 53187
# 64785
# 80640
# 92120
# 108540
# 123132
# 137500
# 154055
#
# Disc length: 2227 seconds
# Revision: 0
# Processed by: cddbd v1.4PL0 Copyright (c) Steve Scherf et al.
# Submitted via: VisiTrax 2.9.5.180 - For more info visit www.synapsa.com
#
DISCID=8a08b10c
DTITLE=Tom Laverty - Especially for you
DYEAR=1900
DGENRE=Irsk
TTITLE0=Walking the floor over you
TTITLE1=Don't cheat in our home town
TTITLE2=A better man
TTITLE3=Rose of my heart
TTITLE4=Home of the blues
TTITLE5=Nobody's home
TTITLE6=It's gonna be love
TTITLE7=Living hard and easy
TTITLE8=Your little ways
TTITLE9=Almost persuaded
TTITLE10=It would take a fool
TTITLE11=I'm not as strong as I used to be
EXTD=
EXTT0=
EXTT1=
EXTT2=
EXTT3=
EXTT4=
EXTT5=
EXTT6=
EXTT7=
EXTT8=
EXTT9=
EXTT10=
EXTT11=
PLAYORDER=
